<svg id="Component_1_1" data-name="Component 1 – 1" xmlns="http://www.w3.org/2000/svg" width="52.146" height="52.146" viewBox="0 0 52.146 52.146">
  <path id="Path_13" data-name="Path 13" d="M49.927,29.423A22.853,22.853,0,1,0,72.781,52.277,22.854,22.854,0,0,0,49.927,29.423Zm0,36.525A13.671,13.671,0,1,1,63.6,52.277,13.671,13.671,0,0,1,49.927,65.948Z" transform="translate(-23.854 -26.204)" fill="#f6e96c"/>
  <path id="Path_14" data-name="Path 14" d="M64.355,46.505,55.7,37.848l7.975-6.692a1.539,1.539,0,0,1,2.16.154l5.061,5.061a1.538,1.538,0,0,1,.154,2.159Z" transform="translate(-23.854 -26.204)" fill="#f6e96c"/>
  <path id="Path_15" data-name="Path 15" d="M64.21,58.4V46.155l10.372.907A1.539,1.539,0,0,1,76,48.7v7.157a1.539,1.539,0,0,1-1.418,1.636Z" transform="translate(-23.854 -26.204)" fill="#f6e96c"/>
  <path id="Path_16" data-name="Path 16" d="M55.7,66.705l8.657-8.657,6.693,7.975a1.539,1.539,0,0,1-.154,2.16l-5.061,5.061a1.539,1.539,0,0,1-2.16.154Z" transform="translate(-23.854 -26.204)" fill="#f6e96c"/>
  <path id="Path_17" data-name="Path 17" d="M43.805,66.56H56.048l-.906,10.372a1.54,1.54,0,0,1-1.637,1.418H46.348a1.539,1.539,0,0,1-1.636-1.418Z" transform="translate(-23.854 -26.204)" fill="#f6e96c"/>
  <path id="Path_18" data-name="Path 18" d="M35.5,58.048l8.658,8.657L36.18,73.4a1.538,1.538,0,0,1-2.159-.154L28.96,68.183a1.539,1.539,0,0,1-.154-2.16Z" transform="translate(-23.854 -26.204)" fill="#f6e96c"/>
  <path id="Path_19" data-name="Path 19" d="M35.643,46.155V58.4l-10.371-.907a1.539,1.539,0,0,1-1.418-1.636V48.7a1.539,1.539,0,0,1,1.418-1.636Z" transform="translate(-23.854 -26.204)" fill="#f6e96c"/>
  <path id="Path_20" data-name="Path 20" d="M44.156,37.848,35.5,46.505,28.806,38.53a1.538,1.538,0,0,1,.154-2.159l5.061-5.061a1.538,1.538,0,0,1,2.159-.154Z" transform="translate(-23.854 -26.204)" fill="#f6e96c"/>
  <path id="Path_21" data-name="Path 21" d="M56.048,37.993H43.805l.907-10.371A1.539,1.539,0,0,1,46.348,26.2h7.157a1.539,1.539,0,0,1,1.637,1.418Z" transform="translate(-23.854 -26.204)" fill="#f6e96c"/>
</svg>
