<svg xmlns="http://www.w3.org/2000/svg" xmlns:xlink="http://www.w3.org/1999/xlink" width="424.418" height="363.192" viewBox="0 0 424.418 363.192"><defs><style>.a{fill:url(#a);}.b{fill:none;}.c{fill:url(#b);}.d{fill:url(#c);}.e{fill:url(#d);}.f{fill:url(#e);}.g{fill:url(#f);}.h{fill:url(#g);}.i{fill:url(#h);}.j{fill:url(#i);}.k{fill:url(#j);}.l{fill:url(#k);}.m{fill:url(#l);}.n{fill:url(#m);}.o{fill:url(#n);}.p{fill:url(#o);}.q{fill:url(#p);}.r{fill:url(#q);}.s{fill:url(#r);}.t{fill:url(#s);}.u{fill:url(#t);}.v{fill:url(#u);}.w{fill:url(#v);}.x{fill:url(#w);}.y{fill:url(#x);}.z{fill:url(#y);}.aa{fill:url(#z);}.ab{fill:url(#aa);}.ac{fill:url(#ab);}.ad{fill:url(#ac);}.ae{fill:url(#ad);}.af{fill:url(#ae);}.ag{fill:url(#af);}.ah{fill:url(#ag);}.ai{fill:url(#ah);}.aj{fill:url(#ai);}.ak{fill:url(#aj);}.al{fill:url(#ak);}.am{fill:url(#al);}.an{fill:url(#am);}</style><linearGradient id="a" x1="3.366" y1="4.362" x2="2.89" y2="5.94" gradientUnits="objectBoundingBox"><stop offset="0.134" stop-color="#d66655"/><stop offset="1" stop-color="#efe88d"/></linearGradient><linearGradient id="b" x1="456.875" y1="684.163" x2="395.806" y2="907.448" xlink:href="#a"/><linearGradient id="c" x1="455.428" y1="689.454" x2="407.824" y2="863.508" xlink:href="#a"/><linearGradient id="d" x1="3.543" y1="8.241" x2="3.515" y2="9.651" xlink:href="#a"/><linearGradient id="e" x1="163.343" y1="14040.181" x2="153.172" y2="15850.451" xlink:href="#a"/><linearGradient id="f" x1="288.353" y1="15810.467" x2="270.342" y2="17848.064" xlink:href="#a"/><radialGradient id="g" cx="-0.575" cy="0.646" r="1.507" gradientTransform="translate(6.048 -0.148) rotate(17.949)" xlink:href="#a"/><linearGradient id="h" x1="71.227" y1="9.117" x2="71.92" y2="7.997" gradientUnits="objectBoundingBox"><stop offset="0" stop-color="#76f39e"/><stop offset="0.546" stop-color="#4d7cb7"/><stop offset="0.733" stop-color="#315c94"/><stop offset="1" stop-color="#0d3468"/></linearGradient><linearGradient id="i" x1="22.204" y1="18.488" x2="21.509" y2="16.758" gradientUnits="objectBoundingBox"><stop offset="0" stop-color="#76f4a0"/><stop offset="0.546" stop-color="#4d7cb7"/><stop offset="0.733" stop-color="#315c94"/><stop offset="1" stop-color="#0d3468"/></linearGradient><linearGradient id="j" x1="0.257" y1="9.318" x2="1.226" y2="9.318" xlink:href="#i"/><linearGradient id="k" x1="0.03" y1="2.825" x2="0.95" y2="2.825" xlink:href="#i"/><linearGradient id="l" x1="1.142" y1="0.924" x2="-0.099" y2="2.011" gradientUnits="objectBoundingBox"><stop offset="0" stop-color="#0d3468"/><stop offset="0.267" stop-color="#315c94"/><stop offset="0.454" stop-color="#4d7cb7"/><stop offset="1" stop-color="#76f4a0"/></linearGradient><linearGradient id="m" x1="1.352" y1="0.146" x2="-0.012" y2="0.691" xlink:href="#a"/><linearGradient id="n" x1="1.356" y1="0.158" x2="-0.019" y2="0.707" xlink:href="#a"/><linearGradient id="o" x1="1.081" y1="-0.232" x2="0.26" y2="0.781" xlink:href="#a"/><linearGradient id="p" x1="0.825" y1="-0.489" x2="0.239" y2="1.294" xlink:href="#a"/><linearGradient id="q" x1="0.826" y1="-0.487" x2="0.241" y2="1.296" xlink:href="#a"/><linearGradient id="r" x1="1.061" y1="-0.145" x2="0.237" y2="1.008" xlink:href="#a"/><linearGradient id="s" x1="1.66" y1="-10.27" x2="1.632" y2="-9.276" xlink:href="#a"/><linearGradient id="t" x1="7.981" y1="-220.203" x2="7.793" y2="-200.696" xlink:href="#a"/><linearGradient id="u" x1="1.578" y1="-10.27" x2="1.551" y2="-9.275" xlink:href="#a"/><linearGradient id="v" x1="0.836" y1="-0.135" x2="0.497" y2="0.682" xlink:href="#a"/><linearGradient id="w" x1="0.082" y1="0.602" x2="0.886" y2="0.171" gradientUnits="objectBoundingBox"><stop offset="0" stop-color="#4d7cb7"/><stop offset="0.283" stop-color="#4a79b4"/><stop offset="0.49" stop-color="#4270aa"/><stop offset="0.674" stop-color="#36629a"/><stop offset="0.843" stop-color="#234d84"/><stop offset="1" stop-color="#0d3468"/></linearGradient><linearGradient id="x" y1="0.5" x2="1" y2="0.5" gradientUnits="objectBoundingBox"><stop offset="0" stop-color="#325d94"/><stop offset="0.044" stop-color="#37639b"/><stop offset="0.175" stop-color="#4371aa"/><stop offset="0.324" stop-color="#4a79b4"/><stop offset="0.532" stop-color="#4d7cb7"/><stop offset="0.679" stop-color="#4d7fb6"/><stop offset="0.814" stop-color="#4f8ab3"/><stop offset="0.943" stop-color="#539daf"/><stop offset="1" stop-color="#55a8ad"/></linearGradient><linearGradient id="y" x1="0.162" y1="0.693" x2="0.854" y2="0.254" gradientUnits="objectBoundingBox"><stop offset="0" stop-color="#0d3468"/><stop offset="1" stop-color="#4d7cb7"/></linearGradient><linearGradient id="z" x1="0.754" y1="0.779" x2="0.315" y2="0.141" gradientUnits="objectBoundingBox"><stop offset="0" stop-color="#0d3468"/><stop offset="0.183" stop-color="#1d467c"/><stop offset="0.521" stop-color="#37639c"/><stop offset="0.806" stop-color="#4775af"/><stop offset="1" stop-color="#4d7cb7"/></linearGradient><linearGradient id="aa" x1="-2.538" y1="-1.384" x2="3.786" y2="2.741" xlink:href="#a"/><linearGradient id="ab" x1="-2.087" y1="-2.021" x2="2.145" y2="2.103" xlink:href="#a"/><linearGradient id="ac" x1="-4.342" y1="-2.56" x2="1.983" y2="1.564" xlink:href="#a"/><linearGradient id="ad" x1="-7.12" y1="-3.152" x2="1.753" y2="0.961" xlink:href="#a"/><linearGradient id="ae" x1="3.95" y1="-2.825" x2="-0.191" y2="1.351" gradientUnits="objectBoundingBox"><stop offset="0" stop-color="#325d94"/><stop offset="0.19" stop-color="#346097"/><stop offset="0.355" stop-color="#3c69a2"/><stop offset="0.51" stop-color="#4a79b3"/><stop offset="0.532" stop-color="#4d7cb7"/><stop offset="0.679" stop-color="#4d7fb6"/><stop offset="0.814" stop-color="#4f8ab3"/><stop offset="0.943" stop-color="#539daf"/><stop offset="1" stop-color="#55a8ad"/></linearGradient><linearGradient id="af" x1="4.186" y1="-2.189" x2="-1.099" y2="1.667" xlink:href="#ae"/><linearGradient id="ag" x1="3.552" y1="-2.057" x2="-1.472" y2="2.152" xlink:href="#ae"/><linearGradient id="ah" x1="8.026" y1="-1.466" x2="-6.319" y2="2.282" xlink:href="#ae"/><linearGradient id="ai" x1="2.478" y1="-1.34" x2="-1.663" y2="2.835" xlink:href="#ae"/><linearGradient id="aj" x1="5.723" y1="-0.865" x2="-8.62" y2="2.883" xlink:href="#ae"/><linearGradient id="ak" x1="14.944" y1="-3.274" x2="0.6" y2="0.474" xlink:href="#ae"/><linearGradient id="al" x1="6.134" y1="-3.518" x2="0.116" y2="0.658" xlink:href="#ae"/><linearGradient id="am" x1="5.226" y1="-2.978" x2="-0.234" y2="1.052" xlink:href="#ae"/></defs><g transform="translate(-1029.994 -411.843)"><path class="a" d="M1039.319,558.37c.834-12.864,7.049-24.343,15.41-33.572q.352-.412,1.014-1.1c1.452-1.54,2.964-3.011,4.517-4.415l.22-.209c18.921-17.925,26.326-12.026,77.742-37.495s45.071-69.738,45.071-69.738c-12.435,21.714-21.911,27.237-38.849,38.5-22.567,15.006-55.581,28.434-78.6,42.151-6.581,3.922-18.513,13.765-23.716,20.829-35.279,47.9,17.571,88.584,17.571,88.584S1037.935,579.734,1039.319,558.37Zm-2.583-.349Zm.422.093Z"/><path class="b" d="M1055.743,523.7c.957-.99,2.424-2.428,4.517-4.415C1058.707,520.689,1057.195,522.16,1055.743,523.7Z"/><path d="M1036.736,558.021Z"/><path d="M1037.158,558.114Z"/><path class="c" d="M1054.729,524.8q.5-.553,1.014-1.1Q1055.08,524.387,1054.729,524.8Z"/><path class="d" d="M1054.729,524.8q.5-.553,1.014-1.1Q1055.08,524.387,1054.729,524.8Z"/><path class="e" d="M1136.973,482.2c-35.654,17.461-57.572,18.954-76.493,36.879l-.22.209c8.162-7.372,27.8-16.934,42.3-19.893,28.633-5.844,43.762-13.077,56.466-24.924,16.953-15.81,29.084-40,24.271-62.625C1183.293,411.843,1188.5,456.961,1136.973,482.2Z"/><path class="f" d="M1065.827,521.758l-2.681.059S1064.066,521.828,1065.827,521.758Z"/><path class="g" d="M1066.987,521.705c-.419.021-.809.039-1.16.053l1.514-.033Z"/><path class="b" d="M1126.645,521.148c-.042.045-.085.088-.127.134Z"/><circle class="h" cx="14.272" cy="14.272" r="14.272" transform="translate(1110.862 615.219)"/><path class="i" d="M1192.2,668.1c7.023-2.434,12.01-3.971,13.45-4.034,24.44-1.054,10.331,74.838,10.331,74.838,22.234-39.027,16.643-77.587,8.8-81.609C1217.061,653.34,1192.949,667.688,1192.2,668.1Z"/><path class="b" d="M1083.217,639.011c-.5-.6-.986-1.21-1.456-1.829"/><path class="b" d="M1066.65,572.393c.071-.783.124-1.2.124-1.2"/><path class="j" d="M1077.46,736.274c10.935,5.207,24.085,9.767,37.675,10.605,24.757,1.523,44.07-9.741,56.7-20.578a167.26,167.26,0,0,0,28.507-41.1c2.443-4.91-.443-8.505-5.849-2.69C1170.621,708.17,1145.183,739.782,1077.46,736.274Z"/><path class="k" d="M1029.994,729.307s18.926,30.1,57.407,41.03c0,0,45.647-3.3,84.43-44.036-12.626,10.837-31.939,22.1-56.7,20.578-13.59-.838-26.74-5.4-37.675-10.605A281.378,281.378,0,0,1,1029.994,729.307Z"/><path class="l" d="M1114.03,773.5s55.139,14.649,85.1-46.684a197.045,197.045,0,0,0,10.334-25.456c-5.141,10.487-13.993,24.3-28.308,35.3-12.3,9.457-26.245,17.078-36.689,22.175A124.084,124.084,0,0,1,1114.03,773.5Z"/><path class="m" d="M1206.71,680.754c-10.5,21.082-28.569,55.819-62.244,78.084,10.5-2.1,23.131-5.335,34.574-15.816,13.838-12.674,25.282-31.171,30.423-41.658,2.433-7.792,3.981-15.608,2.66-20.572C1211.846,679.744,1209.264,675.622,1206.71,680.754Z"/><path class="n" d="M1087.537,540.41c23.168-1.6,43.893-20.861,43.893-20.861-25.581,16.193-42.31,9.348-59.158,11.052-25.94,2.623-27.612,25.828-27.612,25.828a45.374,45.374,0,0,0-1.016,8C1048.238,553.325,1064.369,542.015,1087.537,540.41Z"/><path class="o" d="M1074.117,549.9c34.061-1.724,57.313-30.35,57.313-30.35s-20.725,19.257-43.893,20.861-39.3,12.915-43.893,24.021C1043.644,564.431,1050.739,551.082,1074.117,549.9Z"/><path class="p" d="M1074.117,549.9c34.061-1.724,57.313-30.35,57.313-30.35s-20.725,19.257-43.893,20.861-39.3,12.915-43.893,24.021C1043.644,564.431,1050.739,551.082,1074.117,549.9Z"/><path class="q" d="M1157.487,481.375c-13.8,11.557-29.938,20.084-53.3,23.086-27.313,3.511-44.072,25.21-44.072,25.21,7.662-6.168,19.761-7.743,43.59-10.122C1128.821,517.042,1157.487,481.375,1157.487,481.375Z"/><path class="r" d="M1121.7,519.329c22.644-12.29,35.786-37.954,35.786-37.954s-28.666,35.667-53.778,38.174c-23.829,2.379-35.928,3.954-43.59,10.122C1073.254,520.028,1099.057,531.62,1121.7,519.329Z"/><path class="s" d="M1121.7,519.329c22.644-12.29,35.786-37.954,35.786-37.954s-28.666,35.667-53.778,38.174c-23.829,2.379-35.928,3.954-43.59,10.122C1073.254,520.028,1099.057,531.62,1121.7,519.329Z"/><path class="t" d="M1146.928,411.843a89.927,89.927,0,0,1-38.125,53.19C1169.422,436.928,1146.928,411.843,1146.928,411.843Z"/><path class="u" d="M1115.108,462.321l-6.305,2.712C1110.886,464.2,1113,463.29,1115.108,462.321Z"/><path class="v" d="M1148.238,441.143c13.818-15.327-1.31-29.3-1.31-29.3s22.494,25.085-38.125,53.19l6.305-2.712C1129.107,455.895,1143.064,446.883,1148.238,441.143Z"/><path class="w" d="M1148.238,441.143c13.818-15.327-1.31-29.3-1.31-29.3s22.494,25.085-38.125,53.19l6.305-2.712C1129.107,455.895,1143.064,446.883,1148.238,441.143Z"/><path class="x" d="M1151.474,668.876l0,0a90.909,90.909,0,0,1-32.655,1.153,43.842,43.842,0,0,1-28.993-16.283h-.008s-28.2-4.918-36.342-30.4c-.127,1.72-.214,3.452-.214,5.207a71.838,71.838,0,0,0,.481,8.107l-8.56,3.794a4.135,4.135,0,0,0-2.177,5.4l6.237,18.2a4.136,4.136,0,0,0,5.032,2.925l9.029-2.236a70.841,70.841,0,0,0,7.077,9.718l-5.34,7.482c-1.366,1.6-.978,4.176.869,5.757l14.629,12.491a4.124,4.124,0,0,0,5.814-.04l7.917-7.772S1138.63,693.942,1151.474,668.876Z"/><path class="y" d="M1131.876,698.9c24.874-1.14,48.3-17.791,60.147-27.584,10.563-8.733,24.074-16.963,31.794-13,7.841,4.019,13.43,41.569-8.8,80.6,56.835-72.187-5.542-144.08-5.542-144.08,4.413,26.8-7.637,45.686-19.03,54.571-13.471,10.505-26.3,16.583-38.966,19.473l0,0s-10.137,23.719-57.207,23.495C1103.15,696.436,1112.438,699.788,1131.876,698.9Z"/><path class="z" d="M1203.733,613.216l-5.682-18.381c-.718-2.322-2.93-3.7-4.94-3.075l-8.82,1.9a69.972,69.972,0,0,0-9.352-12.729l4.65-7.667a4.139,4.139,0,0,0-1.291-5.676l-15.515-11.374a4.14,4.14,0,0,0-5.8.475l-6.3,7.187s-31.554,1.078-44.054,26.21h0a41.991,41.991,0,0,1,28.261-1.906l.006-.011.007.015a41.98,41.98,0,0,1,30.5,40.369c0,14.078-7.157,26.193-19.94,33.963,18.495-5.243,41.243-13.171,47.808-40.664l8.119-3.307A4.138,4.138,0,0,0,1203.733,613.216Z"/><path class="aa" d="M1135.564,550.109a4.138,4.138,0,0,0-4.4-3.81H1111.93a4.138,4.138,0,0,0-4.4,3.81l-.9,10.32a69.571,69.571,0,0,0-14.576,5.369l-7-6.695a4.136,4.136,0,0,0-5.82.041l-14.461,12.688a4.138,4.138,0,0,0-.787,5.768l4.963,6.759a70.28,70.28,0,0,0-7.019,10.412l-9.307-2.2c-2-.661-4.233.677-5,2.982l-6.034,18.266a4.138,4.138,0,0,0,2.235,5.374l9.654,4.152s5.66,23.869,36.342,30.4l0-.008a40.6,40.6,0,0,1-8.361-25.185,41.75,41.75,0,0,1,6.771-22.844l.007-.015h0a42.158,42.158,0,0,1,18.391-15.608h0c12.5-25.132,44.054-26.21,44.054-26.21a70.068,70.068,0,0,0-14.287-4.274Z"/><path class="ab" d="M1303.311,682.645a5.141,5.141,0,0,0-.422-2.076,5.448,5.448,0,0,0-2.833-2.849,5.288,5.288,0,0,0-4.149,0,5.458,5.458,0,0,0-2.849,2.849,5.11,5.11,0,0,0-.424,2.076h3.7a1.627,1.627,0,0,1,.479-1.189,1.671,1.671,0,0,1,2.348-.006,1.6,1.6,0,0,1,.479,1.176,2.36,2.36,0,0,1-.5,1.2,11.26,11.26,0,0,1-1.413,1.645,22.19,22.19,0,0,1-2.207,1.884,32.977,32.977,0,0,1-2.881,1.939v3.964h10.677v-3.675h-4.7Q1303.31,685.8,1303.311,682.645Z"/><path class="ac" d="M1322.383,679.612a8.189,8.189,0,0,0-2.54-1.707,7.957,7.957,0,0,0-6.211,0,7.986,7.986,0,0,0-4.234,4.24,7.989,7.989,0,0,0,0,6.219,7.986,7.986,0,0,0,4.234,4.24,7.969,7.969,0,0,0,6.211,0,8.206,8.206,0,0,0,2.54-1.707,8,8,0,0,0,1.716-2.533,8,8,0,0,0,0-6.219A7.99,7.99,0,0,0,1322.383,679.612Zm-1.666,7.317a4.348,4.348,0,0,1-2.294,2.294,4.329,4.329,0,0,1-3.349,0,4.338,4.338,0,0,1-2.294-2.294,4.328,4.328,0,0,1,0-3.349,4.329,4.329,0,0,1,2.294-2.294,4.328,4.328,0,0,1,3.349,0,4.339,4.339,0,0,1,2.294,2.294,4.33,4.33,0,0,1,0,3.349Z"/><path class="ad" d="M1340.862,682.645a5.141,5.141,0,0,0-.422-2.076,5.441,5.441,0,0,0-2.832-2.849,5.29,5.29,0,0,0-4.15,0,5.461,5.461,0,0,0-2.848,2.849,5.111,5.111,0,0,0-.425,2.076h3.7a1.627,1.627,0,0,1,.479-1.189,1.579,1.579,0,0,1,1.174-.485,1.634,1.634,0,0,1,1.652,1.655,2.356,2.356,0,0,1-.5,1.2,11.321,11.321,0,0,1-1.413,1.645,22.19,22.19,0,0,1-2.207,1.884,33,33,0,0,1-2.882,1.939v3.964h10.677v-3.675h-4.7Q1340.863,685.8,1340.862,682.645Z"/><path class="ae" d="M1351.343,677.253l-3.936,4.849,2.849,2.327,1.088-1.348v10.176h3.674v-16Z"/><path class="af" d="M1312.278,623.22a16.189,16.189,0,0,0,3.018-.761v.945h8.925V601.828h-16.642V610.7h7.717v1.943a9.927,9.927,0,0,1-3.307,1.575,10.87,10.87,0,0,1-3.6.341,10.422,10.422,0,0,1-3.517-.892,10.143,10.143,0,0,1-3.071-2.127,10.431,10.431,0,0,1,0-14.8,10.051,10.051,0,0,1,3.465-2.283,10.551,10.551,0,0,1,7.874,0,10.072,10.072,0,0,1,3.465,2.283l6.3-6.3a18.826,18.826,0,0,0-6.405-4.253,19.5,19.5,0,0,0-14.594,0,18.806,18.806,0,0,0-6.405,4.253,18.485,18.485,0,0,0-4.226,6.4,19.931,19.931,0,0,0-1.391,7.3,19.715,19.715,0,0,0,1.391,7.271,18.538,18.538,0,0,0,4.226,6.379,18.8,18.8,0,0,0,6.405,4.252,19.6,19.6,0,0,0,7.3,1.417A20.275,20.275,0,0,0,1312.278,623.22Z"/><path class="ag" d="M1353.881,614.532h-15.854v-6.09h12.862V599.57h-12.862v-5.827h15.854a8.852,8.852,0,0,0-8.872-8.853l-15.854.034V623.4h24.726Z"/><path class="ah" d="M1383.227,605.082a12.764,12.764,0,0,0,1.312-5.741,12.557,12.557,0,0,0-1.233-5.505,14.3,14.3,0,0,0-3.412-4.509,17.126,17.126,0,0,0-5.067-3.093,17.338,17.338,0,0,0-6.194-1.206h-8.873V623.4h8.873v-9.712q.735-.053,1.417-.105t1.365-.158l6.195,9.975h10.446l-8.5-13.735A13.844,13.844,0,0,0,1383.227,605.082Zm-8.111-3.7a5.594,5.594,0,0,1-1.523,1.706,8.065,8.065,0,0,1-2.257,1.182,9.235,9.235,0,0,1-2.7.5V593.9a9.3,9.3,0,0,1,2.7.5,8.144,8.144,0,0,1,2.257,1.181,5.749,5.749,0,0,1,1.523,1.68,3.99,3.99,0,0,1,.551,2.048A4.125,4.125,0,0,1,1375.116,601.381Z"/><path class="ai" d="M1393.253,623.4h8.872V593.691a8.873,8.873,0,0,0-8.872-8.873h0Z"/><path class="aj" d="M1423.386,610.7h7.717v1.943a9.927,9.927,0,0,1-3.307,1.575,10.87,10.87,0,0,1-3.6.341,10.422,10.422,0,0,1-3.517-.892,10.143,10.143,0,0,1-3.071-2.127,10.431,10.431,0,0,1,0-14.8,10.06,10.06,0,0,1,3.465-2.283,10.551,10.551,0,0,1,7.874,0,10.072,10.072,0,0,1,3.465,2.283l6.3-6.3a18.825,18.825,0,0,0-6.4-4.253,19.5,19.5,0,0,0-14.594,0,18.816,18.816,0,0,0-6.405,4.253,18.483,18.483,0,0,0-4.226,6.4,19.931,19.931,0,0,0-1.391,7.3,19.715,19.715,0,0,0,1.391,7.271,18.537,18.537,0,0,0,4.226,6.379,18.812,18.812,0,0,0,6.405,4.252,19.6,19.6,0,0,0,7.3,1.417,20.275,20.275,0,0,0,3.071-.236,16.191,16.191,0,0,0,3.018-.761v.945h8.925V601.828h-16.642Z"/><path class="ak" d="M1445.539,584.818V623.4h8.873V593.691a8.874,8.874,0,0,0-8.873-8.873Z"/><path class="al" d="M1292.88,669.8h8.872V640.091a8.872,8.872,0,0,0-8.872-8.872h0Z"/><path class="am" d="M1306.792,639.986h7.349V669.8h8.872V639.986h7.4v-8.872h-23.624Z"/><path class="an" d="M1352.56,646.6q-.941-.42-1.856-.736c-.613-.21-1.215-.4-1.81-.577q-1-.315-1.89-.656a11.631,11.631,0,0,1-1.627-.761,2.509,2.509,0,0,1-1.05-1.444,2.347,2.347,0,0,1,.158-1.759,2.044,2.044,0,0,1,.839-.918,3.164,3.164,0,0,1,1.024-.368,2.561,2.561,0,0,1,.892,0,3.489,3.489,0,0,0,.5.079,5.274,5.274,0,0,1,1.339.63,1.818,1.818,0,0,1,.761,1.68h8.827a11.17,11.17,0,0,0-.627-3.728,10.7,10.7,0,0,0-1.8-3.228,11.521,11.521,0,0,0-2.792-2.468,11.8,11.8,0,0,0-3.608-1.5,12.314,12.314,0,0,0-4.042-.367,11.436,11.436,0,0,0-3.727.919,11.315,11.315,0,0,0-3.151,2.073,11.561,11.561,0,0,0-2.362,3.1,10.872,10.872,0,0,0-1.181,4.068,11.461,11.461,0,0,0,2.179,7.848,11.073,11.073,0,0,0,3.1,2.888,15.246,15.246,0,0,0,2.835,1.417q1.417.525,2.73.945.734.264,1.391.473a11.33,11.33,0,0,1,1.233.472,4.531,4.531,0,0,1,1.182.814,3.559,3.559,0,0,1,.682.919,2.785,2.785,0,0,1,.289.892,4.423,4.423,0,0,1,0,1.365,2.532,2.532,0,0,1-.289.866,4.27,4.27,0,0,1-.682.919,3.494,3.494,0,0,1-1.182.787,4.64,4.64,0,0,1-2.152.42,3.96,3.96,0,0,1-2.047-.682,4.934,4.934,0,0,1-1.208-1.182,3.858,3.858,0,0,1-.682-2.441h-8.872a13.2,13.2,0,0,0,1.575,6.379,12.893,12.893,0,0,0,4.41,4.751,12.344,12.344,0,0,0,3.438,1.548,13.7,13.7,0,0,0,3.649.5,14.18,14.18,0,0,0,2.833-.289,13.046,13.046,0,0,0,8.176-5.538,12.606,12.606,0,0,0,0-13.492A12.381,12.381,0,0,0,1352.56,646.6Z"/></g></svg>