<svg id="Layer_1" data-name="Layer 1" xmlns="http://www.w3.org/2000/svg" xmlns:xlink="http://www.w3.org/1999/xlink" viewBox="0 0 419.43 355.21"><defs><style>.cls-1{fill:none;}.cls-2{clip-path:url(#clip-path);}.cls-3{fill:url(#linear-gradient);}.cls-4{clip-path:url(#clip-path-2);}.cls-5{fill:url(#linear-gradient-2);}.cls-6{clip-path:url(#clip-path-3);}.cls-7{fill:url(#radial-gradient);}.cls-8{clip-path:url(#clip-path-4);}.cls-9{fill:url(#linear-gradient-3);}.cls-10{clip-path:url(#clip-path-5);}.cls-11{fill:url(#linear-gradient-4);}.cls-12{clip-path:url(#clip-path-6);}.cls-13{fill:url(#linear-gradient-5);}.cls-14{clip-path:url(#clip-path-7);}.cls-15{fill:url(#linear-gradient-6);}.cls-16{clip-path:url(#clip-path-8);}.cls-17{fill:url(#linear-gradient-7);}.cls-18{clip-path:url(#clip-path-9);}.cls-19{fill:url(#linear-gradient-8);}.cls-20{clip-path:url(#clip-path-10);}.cls-21{fill:url(#linear-gradient-9);}.cls-22{clip-path:url(#clip-path-11);}.cls-23{fill:url(#linear-gradient-10);}.cls-24{clip-path:url(#clip-path-12);}.cls-25{fill:url(#linear-gradient-11);}.cls-26{clip-path:url(#clip-path-13);}.cls-27{fill:url(#linear-gradient-12);}.cls-28{clip-path:url(#clip-path-14);}.cls-29{fill:url(#linear-gradient-13);}.cls-30{clip-path:url(#clip-path-15);}.cls-31{fill:url(#linear-gradient-14);}.cls-32{clip-path:url(#clip-path-16);}.cls-33{fill:url(#linear-gradient-15);}.cls-34{clip-path:url(#clip-path-17);}.cls-35{fill:url(#linear-gradient-16);}.cls-36{clip-path:url(#clip-path-18);}.cls-37{fill:url(#linear-gradient-17);}.cls-38{clip-path:url(#clip-path-19);}.cls-39{fill:url(#linear-gradient-18);}.cls-40{clip-path:url(#clip-path-20);}.cls-41{fill:url(#linear-gradient-19);}.cls-42{clip-path:url(#clip-path-21);}.cls-43{fill:url(#linear-gradient-20);}.cls-44{clip-path:url(#clip-path-22);}.cls-45{fill:url(#linear-gradient-21);}.cls-46{clip-path:url(#clip-path-23);}.cls-47{fill:url(#linear-gradient-22);}.cls-48{clip-path:url(#clip-path-24);}.cls-49{fill:url(#linear-gradient-23);}.cls-50{clip-path:url(#clip-path-25);}.cls-51{fill:url(#linear-gradient-24);}.cls-52{clip-path:url(#clip-path-26);}.cls-53{fill:url(#linear-gradient-25);}.cls-54{clip-path:url(#clip-path-27);}.cls-55{fill:url(#linear-gradient-26);}.cls-56{clip-path:url(#clip-path-28);}.cls-57{fill:url(#linear-gradient-27);}.cls-58{clip-path:url(#clip-path-29);}.cls-59{fill:url(#linear-gradient-28);}.cls-60{clip-path:url(#clip-path-30);}.cls-61{fill:url(#linear-gradient-29);}.cls-62{clip-path:url(#clip-path-31);}.cls-63{fill:url(#linear-gradient-30);}</style><clipPath id="clip-path" transform="translate(29.82 30.63)"><path class="cls-1" d="M145.08,63.28c-16.77,11.15-41.3,21.13-58.4,31.32-4.89,2.92-13.76,10.23-17.62,15.48-26.22,35.59,13,65.82,13,65.82S65.94,159.42,67,143.55c.61-9.56,5.23-18.09,11.45-25q.26-.3.75-.81,1.62-1.73,3.36-3.28l.16-.16c14.06-13.32,19.56-8.93,57.76-27.86s33.49-51.81,33.49-51.81c-9.24,16.13-16.28,20.23-28.86,28.6"/></clipPath><linearGradient id="linear-gradient" x1="-813.52" y1="914.13" x2="-812.77" y2="914.13" gradientTransform="matrix(-217.16, 189.56, 209.94, 224.79, -368332.61, -51232.03)" gradientUnits="userSpaceOnUse"><stop offset="0" stop-color="#d66756"/><stop offset="0.13" stop-color="#d66756"/><stop offset="1" stop-color="#efe88c"/></linearGradient><clipPath id="clip-path-2" transform="translate(29.82 30.63)"><path class="cls-1" d="M139.53,87c-26.5,13-42.78,14.08-56.84,27.4l-.16.16C88.59,109,103.18,101.92,114,99.73c21.28-4.35,32.52-9.72,42-18.52,12.59-11.75,21.61-29.72,18-46.53,0,0,3.87,33.52-34.41,52.27"/></clipPath><linearGradient id="linear-gradient-2" x1="-813.06" y1="913.59" x2="-812.32" y2="913.59" gradientTransform="matrix(-81.93, 114.53, 123.49, 87.73, -179234.8, 13023.23)" xlink:href="#linear-gradient"/><clipPath id="clip-path-3" transform="translate(29.82 30.63)"><path class="cls-1" d="M122.37,189.86a10.61,10.61,0,1,0,8.37-4.07,10.61,10.61,0,0,0-8.37,4.07"/></clipPath><radialGradient id="radial-gradient" cx="-818.1" cy="915.36" r="0.74" gradientTransform="matrix(43.01, 0, 0, -43.01, 35295.01, 39564.02)" xlink:href="#linear-gradient"/><clipPath id="clip-path-4" transform="translate(29.82 30.63)"><path class="cls-1" d="M180.56,225.08c5.22-1.8,8.92-3,10-3,18.16-.79,7.68,55.6,7.68,55.6,16.52-29,12.36-57.65,6.54-60.63a5.61,5.61,0,0,0-2.57-.52c-7.25,0-21.15,8.27-21.64,8.54"/></clipPath><linearGradient id="linear-gradient-3" x1="-814.32" y1="912.33" x2="-813.58" y2="912.33" gradientTransform="matrix(11.65, -95.5, 92.7, 17.44, -74863.5, -93363.71)" gradientUnits="userSpaceOnUse"><stop offset="0" stop-color="#8dcc92"/><stop offset="0.55" stop-color="#4e7db8"/><stop offset="0.72" stop-color="#3a6097"/><stop offset="1" stop-color="#1e3667"/></linearGradient><clipPath id="clip-path-5" transform="translate(29.82 30.63)"><path class="cls-1" d="M182.26,235.79c-17.73,19.06-36.64,42.55-87,40,8.13,3.86,17.9,7.25,28,7.88,18.39,1.13,32.74-7.24,42.13-15.29a124.59,124.59,0,0,0,21.18-30.54c1.15-2.31.71-4.23-.79-4.23-.86,0-2.09.64-3.56,2.23"/></clipPath><linearGradient id="linear-gradient-4" x1="-815.35" y1="914.08" x2="-814.61" y2="914.08" gradientTransform="matrix(136.8, -23.08, 24.47, 146.39, 89289.04, -152331.72)" gradientUnits="userSpaceOnUse"><stop offset="0" stop-color="#8ecc94"/><stop offset="0.55" stop-color="#4e7db8"/><stop offset="0.72" stop-color="#3a6097"/><stop offset="1" stop-color="#1e3667"/></linearGradient><clipPath id="clip-path-6" transform="translate(29.82 30.63)"><path class="cls-1" d="M123.3,283.62c-10.1-.63-19.87-4-28-7.88A210.08,210.08,0,0,1,60,270.56a79.41,79.41,0,0,0,42.65,30.49s33.92-2.46,62.74-32.72c-9.39,8.05-23.74,16.42-42.13,15.29"/></clipPath><linearGradient id="linear-gradient-5" x1="-815.35" y1="914.29" x2="-814.6" y2="914.29" gradientTransform="matrix(0, 137.36, 137.36, 0, -125477.89, 112229.08)" xlink:href="#linear-gradient-4"/><clipPath id="clip-path-7" transform="translate(29.82 30.63)"><path class="cls-1" d="M172.35,276a163.94,163.94,0,0,1-27.26,16.48,92,92,0,0,1-22.61,10.9s41,10.88,63.23-34.69a146.3,146.3,0,0,0,7.68-18.91,74.34,74.34,0,0,1-21,26.22"/></clipPath><linearGradient id="linear-gradient-6" x1="-816.25" y1="914.45" x2="-815.51" y2="914.45" gradientTransform="matrix(0, 87.8, 87.8, 0, -80128.57, 71914.32)" xlink:href="#linear-gradient-4"/><clipPath id="clip-path-8" transform="translate(29.82 30.63)"><path class="cls-1" d="M191.34,234.48c-7.8,15.67-21.23,41.48-46.25,58,7.81-1.56,17.19-4,25.69-11.75,10.28-9.42,18.79-23.16,22.61-30.95,1.8-5.79,3-11.6,2-15.29-.13-.49-.94-1.9-2-1.9-.61,0-1.31.47-2,1.87"/></clipPath><linearGradient id="linear-gradient-7" x1="-813.05" y1="913.18" x2="-812.3" y2="913.18" gradientTransform="matrix(-121.79, 0, 0, 121.79, -98808.41, -110952.47)" gradientUnits="userSpaceOnUse"><stop offset="0" stop-color="#1e3667"/><stop offset="0.28" stop-color="#3a6097"/><stop offset="0.45" stop-color="#4e7db8"/><stop offset="1" stop-color="#8ecc94"/></linearGradient><clipPath id="clip-path-9" transform="translate(29.82 30.63)"><path class="cls-1" d="M101.73,122.82a76.49,76.49,0,0,0-10.28.09c-19.27,2-20.52,19.2-20.52,19.2a33.74,33.74,0,0,0-.75,5.94c3.41-8.25,15.4-16.65,32.61-17.85s32.62-15.5,32.62-15.5c-13.87,8.78-24.23,8.45-33.68,8.12"/></clipPath><linearGradient id="linear-gradient-8" x1="-812.64" y1="914.36" x2="-811.89" y2="914.36" gradientTransform="matrix(-122.2, 0, 0, 122.2, -99144.83, -111603.76)" xlink:href="#linear-gradient"/><clipPath id="clip-path-10" transform="translate(29.82 30.63)"><path class="cls-1" d="M102.79,130.2c-17.21,1.2-29.2,9.6-32.61,17.85,0,0,5.27-9.92,22.64-10.8,25.31-1.28,42.59-22.55,42.59-22.55S120,129,102.79,130.2"/></clipPath><linearGradient id="linear-gradient-9" x1="-812.17" y1="913.62" x2="-811.43" y2="913.62" gradientTransform="matrix(-85.19, 0, 0, 85.19, -69037.72, -77696.07)" xlink:href="#linear-gradient"/><clipPath id="clip-path-11" transform="translate(29.82 30.63)"><path class="cls-1" d="M115.17,103.49c-20.3,2.61-32.75,18.73-32.75,18.73,5.69-4.58,14.68-5.75,32.39-7.52,18.66-1.86,40-28.36,40-28.36-10.26,8.59-22.25,14.92-39.6,17.15"/></clipPath><linearGradient id="linear-gradient-10" x1="-812.84" y1="913.2" x2="-812.1" y2="913.2" gradientTransform="matrix(-103.29, 0, 0, 103.29, -83793.6, -94215.32)" xlink:href="#linear-gradient"/><clipPath id="clip-path-12" transform="translate(29.82 30.63)"><path class="cls-1" d="M114.81,114.7c-17.71,1.77-26.7,2.94-32.39,7.52,4.59-3.37,11.27-3.24,18.81-3.12,8.48.14,18,.28,27-4.56,16.82-9.13,26.59-28.2,26.59-28.2s-21.3,26.5-40,28.36"/></clipPath><linearGradient id="linear-gradient-11" x1="-812.36" y1="913.64" x2="-811.62" y2="913.64" gradientTransform="matrix(-97.61, 0, 0, 97.61, -79125.41, -89071.68)" xlink:href="#linear-gradient"/><clipPath id="clip-path-13" transform="translate(29.82 30.63)"><path class="cls-1" d="M118.59,74.2c45-20.89,28.33-39.52,28.33-39.52A66.77,66.77,0,0,1,118.59,74.2"/></clipPath><linearGradient id="linear-gradient-12" x1="-813.3" y1="911.07" x2="-812.56" y2="911.07" gradientTransform="matrix(4.1, 43.22, 52.63, -5.47, -44445.21, 40192.74)" xlink:href="#linear-gradient"/><clipPath id="clip-path-14" transform="translate(29.82 30.63)"><path class="cls-1" d="M118.59,74.2l4.69-2c10.4-4.77,20.77-11.47,24.61-15.73,10.27-11.39-1-21.77-1-21.77s16.71,18.63-28.33,39.52"/></clipPath><linearGradient id="linear-gradient-13" x1="-811.63" y1="911.14" x2="-810.89" y2="911.14" gradientTransform="matrix(-46.09, 0, 0, 46.09, -37245, -41943.76)" xlink:href="#linear-gradient"/><clipPath id="clip-path-15" transform="translate(29.82 30.63)"><path class="cls-1" d="M77.32,195.69a54.39,54.39,0,0,0,.36,6l-6.36,2.82a3.08,3.08,0,0,0-1.62,4l4.64,13.52a3.07,3.07,0,0,0,3.74,2.17l6.7-1.66A53.53,53.53,0,0,0,90,229.8l-4,5.56a3.08,3.08,0,0,0,.64,4.28l10.87,9.28a3.07,3.07,0,0,0,4.32,0l5.88-5.78s33,1.17,42.51-17.45h0a67.64,67.64,0,0,1-24.27.85,32.59,32.59,0,0,1-21.54-12.1h0s-21-3.65-27-22.58c-.09,1.27-.16,2.56-.16,3.86"/></clipPath><linearGradient id="linear-gradient-14" x1="-815.78" y1="915.06" x2="-815.04" y2="915.06" gradientTransform="matrix(93.72, 0, 0, -93.72, 76528.61, 85977.35)" gradientUnits="userSpaceOnUse"><stop offset="0" stop-color="#4e7db8"/><stop offset="0.28" stop-color="#4c7ab5"/><stop offset="0.48" stop-color="#4772ac"/><stop offset="0.67" stop-color="#3d649c"/><stop offset="0.84" stop-color="#305085"/><stop offset="0.99" stop-color="#1f3768"/><stop offset="1" stop-color="#1e3667"/></linearGradient><clipPath id="clip-path-16" transform="translate(29.82 30.63)"><path class="cls-1" d="M179.25,211.19c-10,7.8-19.54,12.32-28.95,14.47h0s-7.53,17.62-42.51,17.45c6.6,3,13.5,5.52,28,4.85,18.48-.84,35.88-13.21,44.69-20.49,7.85-6.49,17.89-12.61,23.62-9.66s10,30.89-6.54,59.88c42.23-53.63-4.12-107-4.12-107,3.28,19.91-5.67,33.94-14.14,40.55"/></clipPath><linearGradient id="linear-gradient-15" x1="-815.4" y1="914.48" x2="-814.65" y2="914.48" gradientTransform="matrix(144.65, 0, 0, -144.65, 118081.71, 132531.5)" gradientUnits="userSpaceOnUse"><stop offset="0" stop-color="#345d94"/><stop offset="0.05" stop-color="#3a649c"/><stop offset="0.18" stop-color="#4572ac"/><stop offset="0.33" stop-color="#4c7ab5"/><stop offset="0.53" stop-color="#4e7db8"/><stop offset="0.68" stop-color="#4f81b7"/><stop offset="0.82" stop-color="#518cb4"/><stop offset="0.95" stop-color="#549eaf"/><stop offset="1" stop-color="#56a8ad"/></linearGradient><clipPath id="clip-path-17" transform="translate(29.82 30.63)"><path class="cls-1" d="M154.39,142.3l-4.68,5.34s-23.45.8-32.73,19.47a31.16,31.16,0,0,1,21-1.41h0a31.2,31.2,0,0,1,22.67,30c0,10.47-5.32,19.47-14.82,25.24,13.74-3.89,30.65-9.79,35.52-30.21l6-2.46a3.09,3.09,0,0,0,1.74-4l-4.22-13.66a3.07,3.07,0,0,0-3.67-2.28l-6.56,1.41a51.67,51.67,0,0,0-7-9.46l3.46-5.7a3.07,3.07,0,0,0-1-4.21L158.7,142a3.54,3.54,0,0,0-2.09-.71,2.7,2.7,0,0,0-2.22,1.06"/></clipPath><linearGradient id="linear-gradient-16" x1="-816.01" y1="915.65" x2="-815.27" y2="915.65" gradientTransform="matrix(82.14, 0, 0, -82.14, 67153.98, 75394.88)" gradientUnits="userSpaceOnUse"><stop offset="0" stop-color="#1e3667"/><stop offset="1" stop-color="#4e7db8"/></linearGradient><clipPath id="clip-path-18" transform="translate(29.82 30.63)"><path class="cls-1" d="M120.92,134.58a3.07,3.07,0,0,0-3.27,2.83l-.67,7.67a51.68,51.68,0,0,0-10.84,4l-5.2-5a3.07,3.07,0,0,0-4.32,0l-10.75,9.43a3.09,3.09,0,0,0-.58,4.29l3.69,5a52.21,52.21,0,0,0-5.22,7.74L76.85,169a3.08,3.08,0,0,0-3.72,2.22l-4.48,13.57a3.06,3.06,0,0,0,1.66,4l7.17,3.09s4.21,17.73,27,22.58h0a30.17,30.17,0,0,1-6.22-18.72,31,31,0,0,1,5-17h0A31.39,31.39,0,0,1,117,167.11h0c9.28-18.67,32.73-19.47,32.73-19.47a52.56,52.56,0,0,0-10.62-3.18l-.61-7.05a3.08,3.08,0,0,0-3.27-2.83Z"/></clipPath><linearGradient id="linear-gradient-17" x1="-812.99" y1="916.26" x2="-812.25" y2="916.26" gradientTransform="matrix(0, -83.6, -83.6, 0, 76706.09, -67759.52)" gradientUnits="userSpaceOnUse"><stop offset="0" stop-color="#1e3667"/><stop offset="0.2" stop-color="#2b497d"/><stop offset="0.53" stop-color="#3e669d"/><stop offset="0.81" stop-color="#4a77b1"/><stop offset="1" stop-color="#4e7db8"/></linearGradient><clipPath id="clip-path-19" transform="translate(29.82 30.63)"><path class="cls-1" d="M257.62,232.23a3.92,3.92,0,0,0-1.26.86,4.09,4.09,0,0,0-.86,1.26,3.76,3.76,0,0,0-.32,1.54h2.75a1.21,1.21,0,0,1,.36-.89,1.15,1.15,0,0,1,.87-.36,1.23,1.23,0,0,1,1.23,1.23,1.79,1.79,0,0,1-.37.89,8.65,8.65,0,0,1-1,1.23,19.61,19.61,0,0,1-1.64,1.4c-.65.48-1.36,1-2.15,1.44v2.94h7.94V241h-3.49q3.5-2.81,3.49-5.15a3.76,3.76,0,0,0-.32-1.54,4.08,4.08,0,0,0-2.1-2.12,3.87,3.87,0,0,0-3.08,0"/></clipPath><linearGradient id="linear-gradient-18" x1="-815.88" y1="912.87" x2="-815.13" y2="912.87" gradientTransform="matrix(0, 94.31, 94.31, 0, -85833.11, 77149.97)" xlink:href="#linear-gradient"/><clipPath id="clip-path-20" transform="translate(29.82 30.63)"><path class="cls-1" d="M271.86,240.78a3.25,3.25,0,0,1-1.71-1.71,3.23,3.23,0,0,1-.25-1.24,3.28,3.28,0,0,1,.25-1.25,3.36,3.36,0,0,1,.69-1,3.12,3.12,0,0,1,1-.69,3.05,3.05,0,0,1,1.24-.25,3.1,3.1,0,0,1,1.25.25,3.18,3.18,0,0,1,1,.69,3.36,3.36,0,0,1,.69,1,3.1,3.1,0,0,1,.25,1.25,3.05,3.05,0,0,1-.25,1.24,3.28,3.28,0,0,1-.69,1,3.36,3.36,0,0,1-1,.69,3.28,3.28,0,0,1-1.25.25,3.23,3.23,0,0,1-1.24-.25m-1.07-8.41a6,6,0,0,0-1.88,1.26,5.88,5.88,0,0,0-1.27,1.89,5.92,5.92,0,0,0,1.27,6.5,6,6,0,0,0,1.88,1.27,5.89,5.89,0,0,0,4.61,0,6.16,6.16,0,0,0,1.89-1.27,5.83,5.83,0,0,0,1.27-1.88,5.91,5.91,0,0,0,0-4.62,5.88,5.88,0,0,0-1.27-1.89,6.13,6.13,0,0,0-1.89-1.26,5.89,5.89,0,0,0-4.61,0"/></clipPath><linearGradient id="linear-gradient-19" x1="-815.88" y1="912.83" x2="-815.13" y2="912.83" gradientTransform="matrix(0, 94.31, 94.31, 0, -85814.81, 77139.84)" xlink:href="#linear-gradient"/><clipPath id="clip-path-21" transform="translate(29.82 30.63)"><path class="cls-1" d="M285.52,232.23a3.92,3.92,0,0,0-1.26.86,4.09,4.09,0,0,0-.86,1.26,3.75,3.75,0,0,0-.31,1.54h2.74a1.21,1.21,0,0,1,.36-.89,1.17,1.17,0,0,1,.87-.36,1.15,1.15,0,0,1,.87.36,1.19,1.19,0,0,1,.36.87,1.79,1.79,0,0,1-.37.89,8.65,8.65,0,0,1-1.05,1.23,19.61,19.61,0,0,1-1.64,1.4c-.64.48-1.36,1-2.14,1.44v2.94H291V241h-3.49q3.5-2.81,3.49-5.15a3.92,3.92,0,0,0-.31-1.54,4.09,4.09,0,0,0-.86-1.26,3.88,3.88,0,0,0-4.33-.86"/></clipPath><linearGradient id="linear-gradient-20" x1="-815.88" y1="912.8" x2="-815.13" y2="912.8" gradientTransform="matrix(0, 94.31, 94.31, 0, -85798.51, 77129.95)" xlink:href="#linear-gradient"/><clipPath id="clip-path-22" transform="translate(29.82 30.63)"><polygon class="cls-1" points="298.81 231.88 295.88 235.48 298 237.21 298.81 236.21 298.81 243.77 301.54 243.77 301.54 231.88 298.81 231.88"/></clipPath><linearGradient id="linear-gradient-21" x1="-815.88" y1="912.75" x2="-815.13" y2="912.75" gradientTransform="matrix(0, 94.31, 94.31, 0, -85781.57, 77121.58)" xlink:href="#linear-gradient"/><clipPath id="clip-path-23" transform="translate(29.82 30.63)"><path class="cls-1" d="M262.08,164.22a14.25,14.25,0,0,0-7.9,7.91,14.84,14.84,0,0,0-1,5.43,14.68,14.68,0,0,0,1,5.4,13.82,13.82,0,0,0,3.14,4.74,14.1,14.1,0,0,0,4.76,3.16,14.56,14.56,0,0,0,5.42,1,14.79,14.79,0,0,0,2.28-.18,11.48,11.48,0,0,0,2.24-.56v.7h6.63v-16H266.29v6.59H272v1.44a7.19,7.19,0,0,1-2.45,1.17,8.12,8.12,0,0,1-2.68.26,7.8,7.8,0,0,1-2.61-.67,7.5,7.5,0,0,1-2.28-1.57,7.76,7.76,0,0,1,0-11,7.51,7.51,0,0,1,2.57-1.69,7.79,7.79,0,0,1,5.85,0,7.55,7.55,0,0,1,2.58,1.69l4.68-4.68a14,14,0,0,0-4.76-3.15,14.39,14.39,0,0,0-10.84,0"/></clipPath><linearGradient id="linear-gradient-22" x1="-813.27" y1="913.65" x2="-812.53" y2="913.65" gradientTransform="matrix(-215.19, 0, 0, 215.19, -174610.11, -196429.82)" gradientUnits="userSpaceOnUse"><stop offset="0" stop-color="#345d94"/><stop offset="0.19" stop-color="#376097"/><stop offset="0.35" stop-color="#3e6aa2"/><stop offset="0.51" stop-color="#4b7ab4"/><stop offset="0.53" stop-color="#4e7db8"/><stop offset="0.68" stop-color="#4f81b7"/><stop offset="0.82" stop-color="#518cb4"/><stop offset="0.95" stop-color="#549eaf"/><stop offset="1" stop-color="#56a8ad"/></linearGradient><clipPath id="clip-path-24" transform="translate(29.82 30.63)"><path class="cls-1" d="M294.1,163.25l-11.78,0v28.59h18.37v-6.59H288.91v-4.53h9.56v-6.59h-9.56v-4.33h11.78a6.58,6.58,0,0,0-6.57-6.58h0"/></clipPath><linearGradient id="linear-gradient-23" x1="-813.2" y1="913.57" x2="-812.46" y2="913.57" gradientTransform="matrix(-197.81, 0, 0, 197.81, -160464.34, -180533.77)" xlink:href="#linear-gradient-22"/><clipPath id="clip-path-25" transform="translate(29.82 30.63)"><path class="cls-1" d="M311.65,170a7,7,0,0,1,2,.37,5.82,5.82,0,0,1,1.68.88,4.16,4.16,0,0,1,1.13,1.25,3,3,0,0,1,.41,1.52,3.12,3.12,0,0,1-.41,1.54,4.08,4.08,0,0,1-1.13,1.26,5.82,5.82,0,0,1-1.68.88,6.69,6.69,0,0,1-2,.37Zm-6.59-6.59v28.51h6.59v-7.22l1.06-.07,1-.12,4.6,7.41h7.77l-6.32-10.2a10.4,10.4,0,0,0,2.73-3.41,9.52,9.52,0,0,0,1-4.27,9.34,9.34,0,0,0-.91-4.09,10.74,10.74,0,0,0-2.54-3.35,12.77,12.77,0,0,0-8.37-3.19Z"/></clipPath><linearGradient id="linear-gradient-24" x1="-813.27" y1="913.61" x2="-812.53" y2="913.61" gradientTransform="matrix(-215.19, 0, 0, 215.19, -174593.61, -196420.4)" xlink:href="#linear-gradient-22"/><clipPath id="clip-path-26" transform="translate(29.82 30.63)"><path class="cls-1" d="M330,191.87h6.59V169.79A6.59,6.59,0,0,0,330,163.2Z"/></clipPath><linearGradient id="linear-gradient-25" x1="-813.18" y1="913.49" x2="-812.43" y2="913.49" gradientTransform="matrix(-192.64, 0, 0, 192.64, -156242.05, -175797.02)" xlink:href="#linear-gradient-22"/><clipPath id="clip-path-27" transform="translate(29.82 30.63)"><path class="cls-1" d="M348.12,164.22a14,14,0,0,0-4.75,3.15,13.66,13.66,0,0,0-3.14,4.76,14.84,14.84,0,0,0-1,5.43,14.68,14.68,0,0,0,1,5.4,13.68,13.68,0,0,0,3.14,4.74,14.16,14.16,0,0,0,4.75,3.16,14.56,14.56,0,0,0,7.71.87,11.66,11.66,0,0,0,2.24-.56v.7h6.63v-16H352.34v6.59h5.73v1.44a7.15,7.15,0,0,1-2.46,1.17,8,8,0,0,1-2.67.26,7.74,7.74,0,0,1-2.61-.67,7.38,7.38,0,0,1-2.28-1.57,7.76,7.76,0,0,1,0-11,7.51,7.51,0,0,1,2.57-1.69,7.79,7.79,0,0,1,5.85,0,7.64,7.64,0,0,1,2.58,1.69l4.68-4.68a14,14,0,0,0-4.76-3.15,14.41,14.41,0,0,0-10.85,0"/></clipPath><linearGradient id="linear-gradient-26" x1="-813.27" y1="913.55" x2="-812.53" y2="913.55" gradientTransform="matrix(-215.19, 0, 0, 215.19, -174581.08, -196407.33)" xlink:href="#linear-gradient-22"/><clipPath id="clip-path-28" transform="translate(29.82 30.63)"><path class="cls-1" d="M368.8,191.87h6.59V169.79a6.59,6.59,0,0,0-6.59-6.59Z"/></clipPath><linearGradient id="linear-gradient-27" x1="-813.17" y1="913.44" x2="-812.43" y2="913.44" gradientTransform="matrix(-192.64, 0, 0, 192.64, -156225, -175787.14)" xlink:href="#linear-gradient-22"/><clipPath id="clip-path-29" transform="translate(29.82 30.63)"><path class="cls-1" d="M255.37,226.35H262V204.27a6.59,6.59,0,0,0-6.59-6.59Z"/></clipPath><linearGradient id="linear-gradient-28" x1="-813.19" y1="913.55" x2="-812.45" y2="913.55" gradientTransform="matrix(-192.64, 0, 0, 192.64, -156249.42, -175774.27)" xlink:href="#linear-gradient-22"/><clipPath id="clip-path-30" transform="translate(29.82 30.63)"><polygon class="cls-1" points="265.7 197.6 265.7 204.19 271.16 204.19 271.16 226.35 277.76 226.35 277.76 204.19 283.26 204.19 283.26 197.6 265.7 197.6"/></clipPath><linearGradient id="linear-gradient-29" x1="-813.27" y1="913.64" x2="-812.52" y2="913.64" gradientTransform="matrix(-215.19, 0, 0, 215.19, -174578.87, -196391.86)" xlink:href="#linear-gradient-22"/><clipPath id="clip-path-31" transform="translate(29.82 30.63)"><path class="cls-1" d="M294.69,197.13a8.66,8.66,0,0,0-2.77.68,8.4,8.4,0,0,0-2.34,1.54,8.57,8.57,0,0,0-1.76,2.31,8.14,8.14,0,0,0-.88,3,8.53,8.53,0,0,0,3.92,8,11.84,11.84,0,0,0,2.11,1.05c.7.26,1.38.49,2,.7l1,.35a9.81,9.81,0,0,1,.92.35,3.87,3.87,0,0,1,.88.61,2.52,2.52,0,0,1,.5.68,2.13,2.13,0,0,1,.22.66c0,.21,0,.38,0,.51s0,.3,0,.51a1.88,1.88,0,0,1-.22.64,2.87,2.87,0,0,1-.5.68,2.72,2.72,0,0,1-.88.59,3.47,3.47,0,0,1-1.6.31,2.91,2.91,0,0,1-1.52-.51,3.72,3.72,0,0,1-.9-.87,2.88,2.88,0,0,1-.51-1.82h-6.59a9.79,9.79,0,0,0,1.17,4.74,9.57,9.57,0,0,0,3.28,3.53,9,9,0,0,0,2.55,1.15,10.06,10.06,0,0,0,2.71.37,10.71,10.71,0,0,0,2.11-.21,9.75,9.75,0,0,0,2.06-.68,9.18,9.18,0,0,0,4-3.44,9.33,9.33,0,0,0,0-10,9.15,9.15,0,0,0-4-3.43c-.46-.21-.92-.39-1.38-.55s-.9-.3-1.34-.43-1-.32-1.41-.49a9,9,0,0,1-1.21-.56,1.88,1.88,0,0,1-.78-1.07,1.75,1.75,0,0,1,.12-1.31,1.53,1.53,0,0,1,.62-.68,2.25,2.25,0,0,1,.77-.28,1.83,1.83,0,0,1,.66,0l.37.06a4.11,4.11,0,0,1,1,.47,1.34,1.34,0,0,1,.57,1.25h6.56a8.31,8.31,0,0,0-.47-2.77,7.64,7.64,0,0,0-1.34-2.4,8.25,8.25,0,0,0-2.07-1.83,8.78,8.78,0,0,0-2.68-1.12,9.29,9.29,0,0,0-2.32-.3c-.23,0-.46,0-.68,0"/></clipPath><linearGradient id="linear-gradient-30" x1="-813.27" y1="913.6" x2="-812.52" y2="913.6" gradientTransform="matrix(-215.19, 0, 0, 215.19, -174571.52, -196383.49)" xlink:href="#linear-gradient-22"/></defs><title>Logo Gerigi</title><g class="cls-2"><polygon class="cls-3" points="281.13 143.11 133.66 271.84 0 128.73 147.48 0 281.13 143.11"/></g><g class="cls-4"><polygon class="cls-5" points="245.5 92.21 175.52 190.02 74.48 118.24 144.45 20.42 245.5 92.21"/></g><g class="cls-6"><rect class="cls-7" x="116.42" y="183.26" width="28.62" height="27.62" transform="translate(-13.45 67.53) rotate(-13.81)"/></g><g class="cls-8"><polygon class="cls-9" points="243.8 314.61 251.86 248.54 211.14 240.88 203.08 306.95 243.8 314.61"/></g><g class="cls-10"><polygon class="cls-11" points="127.66 330.55 225.9 313.98 215.04 249.02 116.8 265.6 127.66 330.55"/></g><g class="cls-12"><rect class="cls-13" x="84.72" y="229.64" width="56.03" height="110.08" transform="translate(-160.41 359.73) rotate(-76.74)"/></g><g class="cls-14"><rect class="cls-15" x="122.33" y="243.56" width="71.21" height="76.96" transform="translate(-108.58 441.82) rotate(-84.3)"/></g><g class="cls-16"><rect class="cls-17" x="131.52" y="223.19" width="78.4" height="78.72" transform="translate(-104.01 220.18) rotate(-43.49)"/></g><g class="cls-18"><rect class="cls-19" x="67.5" y="108.52" width="70.58" height="45.72" transform="matrix(0.98, -0.2, 0.2, 0.98, 5.62, 53.84)"/></g><g class="cls-20"><rect class="cls-21" x="66.31" y="99.87" width="72.96" height="63.02" transform="translate(-24.44 105.78) rotate(-32.26)"/></g><g class="cls-22"><rect class="cls-23" x="83.67" y="64.22" width="69.86" height="80.13" transform="translate(-4 176.25) rotate(-56.5)"/></g><g class="cls-24"><rect class="cls-25" x="78.65" y="68.92" width="79.89" height="70.73" transform="translate(-8.48 116.87) rotate(-34.77)"/></g><g class="cls-26"><polygon class="cls-27" points="193.01 60.68 197.16 104.44 148.85 109.46 144.7 65.69 193.01 60.68"/></g><g class="cls-28"><rect class="cls-29" x="114.99" y="26.62" width="52.26" height="55.63" transform="translate(72.63 200.02) rotate(-70.56)"/></g><g class="cls-30"><rect class="cls-31" x="61.37" y="179.22" width="96.67" height="83.49" transform="translate(-42.08 84.62) rotate(-21)"/></g><g class="cls-32"><rect class="cls-33" x="137.61" y="201.27" width="131.95" height="107.06"/></g><g class="cls-34"><rect class="cls-35" x="100.69" y="127.6" width="105.25" height="106.97" transform="translate(-46.32 151.32) rotate(-35)"/></g><g class="cls-36"><rect class="cls-37" x="52.57" y="118.39" width="112.66" height="112.22" transform="translate(-50.58 124.65) rotate(-35)"/></g><g class="cls-38"><rect class="cls-39" x="252.14" y="230.86" width="14.03" height="13.96" transform="translate(-62.24 288.02) rotate(-45.73)"/></g><g class="cls-40"><rect class="cls-41" x="264.72" y="229.44" width="16.77" height="16.77" transform="translate(-58.01 298) rotate(-45.73)"/></g><g class="cls-42"><rect class="cls-43" x="280.04" y="230.86" width="14.03" height="13.96" transform="translate(-53.81 308) rotate(-45.73)"/></g><g class="cls-44"><rect class="cls-45" x="292.48" y="231.65" width="12.46" height="12.35" transform="translate(-50.28 316.34) rotate(-45.73)"/></g><g class="cls-46"><rect class="cls-47" x="246.68" y="158.46" width="38.43" height="38.14" transform="translate(-13.22 290.5) rotate(-48.65)"/></g><g class="cls-48"><rect class="cls-49" x="274.7" y="161.21" width="33.62" height="32.7" transform="translate(-4.55 309.73) rotate(-48.65)"/></g><g class="cls-50"><rect class="cls-51" x="297.93" y="160.3" width="35.3" height="34.62" transform="translate(3.58 327.81) rotate(-48.65)"/></g><g class="cls-52"><rect class="cls-53" x="320.3" y="165.59" width="25.88" height="23.89" transform="translate(9.63 341.05) rotate(-48.65)"/></g><g class="cls-54"><rect class="cls-55" x="332.73" y="158.46" width="38.43" height="38.14" transform="translate(15.98 355.09) rotate(-48.65)"/></g><g class="cls-56"><rect class="cls-57" x="359.15" y="165.59" width="25.88" height="23.89" transform="translate(22.82 370.22) rotate(-48.65)"/></g><g class="cls-58"><rect class="cls-59" x="245.72" y="200.07" width="25.88" height="23.89" transform="translate(-41.56 296.77) rotate(-48.65)"/></g><g class="cls-60"><rect class="cls-61" x="257.89" y="195.89" width="33.18" height="32.17" transform="translate(-36.16 308.63) rotate(-48.65)"/></g><g class="cls-62"><rect class="cls-63" x="277.93" y="194.9" width="35.14" height="34.2" transform="translate(-29.05 324.42) rotate(-48.65)"/></g></svg>